<?xml version="1.0" encoding="UTF-8"?>
<svg version="1.1" xmlns="http://www.w3.org/2000/svg" width="500" height="500">
<path d="M0 0 C165 0 330 0 500 0 C500 165 500 330 500 500 C335 500 170 500 0 500 C0 335 0 170 0 0 Z " fill="#254ACE" transform="translate(0,0)"/>
<path d="M0 0 C42.41000768 37.3691504 71.35946723 92.85035993 75.08764648 149.57250977 C75.47259151 160.23049407 75.28492771 170.91224172 75.08764648 181.57250977 C74.75764648 181.57250977 74.42764648 181.57250977 74.08764648 181.57250977 C74.06782715 180.88439209 74.04800781 180.19627441 74.02758789 179.48730469 C72.3314982 123.17431582 58.59571368 72.03137609 21.08764648 28.57250977 C20.53206055 27.92483643 19.97647461 27.27716309 19.40405273 26.60986328 C7.90033957 13.31191907 -4.58041908 1.75563596 -18.91235352 -8.42749023 C-19.53964355 -8.87817871 -20.16693359 -9.32886719 -20.81323242 -9.79321289 C-56.35602464 -35.13504428 -99.95158159 -48.61790421 -143.51464844 -48.61279297 C-145.57907095 -48.61496833 -147.64294755 -48.63316082 -149.70727539 -48.65209961 C-158.95021747 -48.69100088 -167.76592056 -47.86256124 -176.91235352 -46.42749023 C-178.34723932 -46.22559601 -179.78213296 -46.02375746 -181.21704102 -45.82202148 C-201.6785765 -42.48638824 -221.22893088 -36.38948716 -239.91235352 -27.42749023 C-241.12181641 -26.8495874 -241.12181641 -26.8495874 -242.35571289 -26.26000977 C-259.1402389 -18.11537619 -274.94005353 -7.8183981 -288.91235352 4.57250977 C-289.47341797 5.06799316 -290.03448242 5.56347656 -290.61254883 6.07397461 C-313.95290866 26.82991329 -335.97067333 53.95220004 -345.99438477 83.93579102 C-346.95168191 86.6854743 -348.09917913 89.29004718 -349.28735352 91.94750977 C-359.28903725 115.68607395 -362.14589735 140.39105563 -362.16235352 165.88500977 C-362.16302826 166.82347748 -362.163703 167.76194519 -362.16439819 168.72885132 C-362.14860429 182.5526506 -361.75991911 195.99837936 -358.91235352 209.57250977 C-358.73542969 210.45052246 -358.55850586 211.32853516 -358.3762207 212.2331543 C-355.5034004 226.20280122 -351.66396861 239.95992437 -344.90063477 252.59594727 C-343.62118785 255.15484109 -342.59686216 257.79032935 -341.53735352 260.44750977 C-339.16618516 266.20606149 -336.24523806 271.32630262 -332.91235352 276.57250977 C-331.8337595 278.29662595 -330.75969168 280.02342819 -329.68896484 281.75244141 C-328.64712545 283.43372403 -327.59826219 285.11064809 -326.54907227 286.78735352 C-324.91235352 289.57250977 -324.91235352 289.57250977 -323.91235352 292.57250977 C-322.92235352 292.90250977 -321.93235352 293.23250977 -320.91235352 293.57250977 C-317.91235352 297.9058431 -317.91235352 297.9058431 -317.91235352 300.57250977 C-316.92235352 300.90250977 -315.93235352 301.23250977 -314.91235352 301.57250977 C-313.04516602 303.68188477 -313.04516602 303.68188477 -311.03735352 306.32250977 C-308.2078888 310.02855375 -305.24402258 313.31087578 -301.91235352 316.57250977 C-301.01000977 317.52125977 -300.10766602 318.47000977 -299.17797852 319.44750977 C-290.14311067 328.87081219 -279.83016689 338.93137859 -267.91235352 344.57250977 C-267.91235352 345.23250977 -267.91235352 345.89250977 -267.91235352 346.57250977 C-267.18016602 346.84708008 -266.44797852 347.12165039 -265.69360352 347.40454102 C-263.07097617 348.50589716 -260.82025306 349.75507255 -258.41235352 351.26000977 C-247.73651139 358.26776773 -247.73651139 358.26776773 -235.91235352 362.57250977 C-235.91235352 363.23250977 -235.91235352 363.89250977 -235.91235352 364.57250977 C-232.61235352 365.23250977 -229.31235352 365.89250977 -225.91235352 366.57250977 C-225.91235352 367.23250977 -225.91235352 367.89250977 -225.91235352 368.57250977 C-223.27235352 368.90250977 -220.63235352 369.23250977 -217.91235352 369.57250977 C-217.91235352 370.23250977 -217.91235352 370.89250977 -217.91235352 371.57250977 C-217.35547852 371.60989258 -216.79860352 371.64727539 -216.22485352 371.68579102 C-215.08016602 371.7844043 -215.08016602 371.7844043 -213.91235352 371.88500977 C-213.16985352 371.94301758 -212.42735352 372.00102539 -211.66235352 372.06079102 C-208.6432979 372.62257551 -205.98484777 373.71249677 -203.13354492 374.82617188 C-199.21633287 376.14238613 -195.18199721 376.63665318 -191.09985352 377.19750977 C-189.42635874 377.43749223 -187.75316558 377.67959 -186.08032227 377.92407227 C-185.35095459 378.0254248 -184.62158691 378.12677734 -183.87011719 378.23120117 C-181.91235352 378.57250977 -181.91235352 378.57250977 -178.91235352 379.57250977 C-177.4862872 379.71901866 -176.05518059 379.81947349 -174.62329102 379.88891602 C-173.77299316 379.93097168 -172.92269531 379.97302734 -172.04663086 380.01635742 C-171.13606934 380.0555127 -170.22550781 380.09466797 -169.28735352 380.13500977 C-168.34456543 380.17674316 -167.40177734 380.21847656 -166.43041992 380.26147461 C-157.9178157 380.61347259 -149.43022128 380.76926697 -140.91235352 380.57250977 C-139.73213623 380.54568115 -139.73213623 380.54568115 -138.52807617 380.51831055 C-129.56882916 380.27578598 -121.16890872 379.77658905 -112.51000977 377.26782227 C-109.8971045 376.56842807 -107.41412807 376.20844094 -104.72485352 375.94750977 C-101.12925892 376.00091297 -101.12925892 376.00091297 -99.91235352 374.57250977 C-98.94297852 374.46938477 -97.97360352 374.36625977 -96.97485352 374.26000977 C-92.97546842 373.72783352 -89.5919595 372.35581425 -85.88891602 370.79516602 C-83.07220686 369.63817131 -80.22945023 368.58730039 -77.36523438 367.5546875 C-63.86316649 362.64945412 -51.14764253 356.79677829 -39.17602539 348.80981445 C-35.77659464 346.57129462 -32.99681745 345.00122258 -28.91235352 344.57250977 C-28.58235352 343.58250977 -28.25235352 342.59250977 -27.91235352 341.57250977 C-25.47875977 339.52954102 -25.47875977 339.52954102 -22.47485352 337.38500977 C-21.48614258 336.66958008 -20.49743164 335.95415039 -19.47875977 335.21704102 C-16.91235352 333.57250977 -16.91235352 333.57250977 -14.91235352 333.57250977 C-14.61844727 332.76040039 -14.61844727 332.76040039 -14.31860352 331.93188477 C-12.28323508 328.51698884 -9.45392843 326.33626257 -6.41235352 323.82250977 C-5.8180957 323.3159082 -5.22383789 322.80930664 -4.61157227 322.28735352 C-0.17578849 318.57250977 -0.17578849 318.57250977 2.08764648 318.57250977 C2.74764648 316.92250977 3.40764648 315.27250977 4.08764648 313.57250977 C4.74764648 313.57250977 5.40764648 313.57250977 6.08764648 313.57250977 C6.74764648 311.92250977 7.40764648 310.27250977 8.08764648 308.57250977 C8.74764648 308.57250977 9.40764648 308.57250977 10.08764648 308.57250977 C10.44536133 307.73526367 10.44536133 307.73526367 10.81030273 306.88110352 C12.37291551 304.05693181 14.31771448 301.98742909 16.52514648 299.63500977 C19.53213405 296.42986816 21.86311409 293.35292897 24.08764648 289.57250977 C27.54910335 286.7044455 30.58951523 286.04292541 35.09155273 286.21313477 C38.40305664 286.80933508 40.54521888 288.45382009 43.08764648 290.57250977 C45.95762308 294.87747466 45.92352319 298.52183103 45.08764648 303.57250977 C43.48361994 307.19879063 41.60825847 310.50337082 39.08764648 313.57250977 C38.42764648 313.57250977 37.76764648 313.57250977 37.08764648 313.57250977 C36.69150146 314.45084473 36.69150146 314.45084473 36.28735352 315.34692383 C35.0404449 317.66007379 33.69601204 319.27825865 31.89233398 321.18188477 C30.94741089 322.18493652 30.94741089 322.18493652 29.98339844 323.20825195 C29.31655029 323.90595703 28.64970215 324.60366211 27.96264648 325.32250977 C26.94593872 326.3961377 26.94593872 326.3961377 25.90869141 327.49145508 C21.37736355 332.26241785 16.79147611 336.9711849 12.08764648 341.57250977 C11.4134668 342.25313477 10.73928711 342.93375977 10.04467773 343.63500977 C4.0473239 349.57250977 4.0473239 349.57250977 1.08764648 349.57250977 C1.08764648 350.23250977 1.08764648 350.89250977 1.08764648 351.57250977 C-2.37389198 354.57250977 -2.37389198 354.57250977 -4.91235352 354.57250977 C-4.91235352 355.23250977 -4.91235352 355.89250977 -4.91235352 356.57250977 C-6.84178726 357.98391226 -8.7578334 359.25563081 -10.78735352 360.51000977 C-11.41158203 360.90115967 -12.03581055 361.29230957 -12.67895508 361.6953125 C-14.03896388 362.54523463 -15.40104196 363.39185222 -16.76489258 364.2355957 C-18.92782517 365.58214173 -21.07290133 366.95408827 -23.21704102 368.33032227 C-32.79626217 374.41211495 -42.49161614 379.36577545 -52.9543457 383.7409668 C-55.65907285 384.88963272 -58.31498297 386.1365747 -60.97485352 387.38500977 C-64.86156551 389.16418054 -68.75974328 390.63168188 -72.84204102 391.89672852 C-74.95298461 392.5475205 -74.95298461 392.5475205 -77.06396484 393.52270508 C-80.50450326 394.79075301 -83.95663098 395.43309121 -87.55688477 396.04516602 C-88.28550217 396.17314072 -89.01411957 396.30111542 -89.76481628 396.43296814 C-91.3015887 396.70183884 -92.83881771 396.96811131 -94.37646484 397.23193359 C-96.70781599 397.63208545 -99.03769242 398.04004132 -101.36743164 398.44946289 C-102.86800243 398.71099149 -104.36865112 398.97207356 -105.86938477 399.23266602 C-106.55611771 399.3524733 -107.24285065 399.47228058 -107.95039368 399.59571838 C-111.41248217 400.18802725 -114.86244206 400.69477228 -118.35253906 401.09375 C-121.72264734 401.18062125 -121.72264734 401.18062125 -122.91235352 402.57250977 C-137.69682517 404.23345596 -152.48986674 403.7916215 -167.28735352 402.63500977 C-168.40029785 402.54823975 -169.51324219 402.46146973 -170.65991211 402.37207031 C-178.6550473 401.70116287 -178.6550473 401.70116287 -180.91235352 400.57250977 C-182.8451041 400.250872 -184.7838775 399.96506873 -186.72485352 399.69750977 C-195.35903078 398.41340349 -203.79753699 396.82837796 -211.91235352 393.57250977 C-214.17781982 392.92832699 -216.44919014 392.30468786 -218.72485352 391.69750977 C-223.42223287 390.37851702 -227.71572114 388.98893228 -231.97094727 386.59985352 C-234.08469987 385.44439972 -234.08469987 385.44439972 -237.10375977 384.23266602 C-242.10824587 382.11836506 -246.82420485 379.4753882 -251.59594727 376.88891602 C-255.96122816 374.54445232 -260.33422447 372.4685026 -264.91235352 370.57250977 C-265.57235352 370.24250977 -266.23235352 369.91250977 -266.91235352 369.57250977 C-266.91235352 368.91250977 -266.91235352 368.25250977 -266.91235352 367.57250977 C-267.65485352 367.28375977 -268.39735352 366.99500977 -269.16235352 366.69750977 C-271.47975149 365.74948332 -273.69152466 364.72405065 -275.91235352 363.57250977 C-275.91235352 362.91250977 -275.91235352 362.25250977 -275.91235352 361.57250977 C-276.46922852 361.49000977 -277.02610352 361.40750977 -277.59985352 361.32250977 C-280.65076468 360.33302506 -282.45291589 358.63157382 -284.91235352 356.57250977 C-286.17884771 355.69124089 -287.44982255 354.81638167 -288.72485352 353.94750977 C-289.77672852 353.16375977 -290.82860352 352.38000977 -291.91235352 351.57250977 C-291.91235352 350.91250977 -291.91235352 350.25250977 -291.91235352 349.57250977 C-292.47954102 349.32243164 -293.04672852 349.07235352 -293.63110352 348.81469727 C-306.42705913 341.8470365 -318.03724149 326.86810688 -326.91235352 315.57250977 C-327.80522255 314.48000335 -328.69983141 313.3889171 -329.59594727 312.29907227 C-346.91235352 291.04081788 -346.91235352 291.04081788 -346.91235352 284.57250977 C-347.57235352 284.57250977 -348.23235352 284.57250977 -348.91235352 284.57250977 C-349.44344727 283.43813477 -349.97454102 282.30375977 -350.52172852 281.13500977 C-351.23521748 279.61415171 -351.94876213 278.09331977 -352.66235352 276.57250977 C-353.18442383 275.45682617 -353.18442383 275.45682617 -353.71704102 274.31860352 C-354.06508789 273.57739258 -354.41313477 272.83618164 -354.77172852 272.07250977 C-355.12702637 271.31558838 -355.48232422 270.55866699 -355.84838867 269.77880859 C-356.8273356 267.74880782 -357.86710112 265.76386675 -358.92016602 263.77172852 C-361.55908823 258.5289485 -363.24581096 252.96058993 -365.03735352 247.38500977 C-365.72615992 245.26609787 -366.41621945 243.14759284 -367.10766602 241.02954102 C-367.40688965 240.10117432 -367.70611328 239.17280762 -368.0144043 238.21630859 C-368.61991491 236.43352599 -369.27948028 234.66831947 -369.98779297 232.92382812 C-371.10777823 230.07551072 -371.53155818 227.34734855 -371.97485352 224.32250977 C-372.24030184 220.63223461 -372.24030184 220.63223461 -373.91235352 217.57250977 C-374.2875027 214.92594953 -374.61855062 212.29071251 -374.91235352 209.63500977 C-375.31814029 204.44737671 -375.31814029 204.44737671 -376.91235352 199.57250977 C-378.03825952 190.44544697 -378.06656404 181.25435268 -378.03735352 172.07250977 C-378.0412207 170.85692383 -378.04508789 169.64133789 -378.04907227 168.38891602 C-377.98293782 106.42094031 -351.09219838 50.70806476 -308.41235352 6.88500977 C-303.53584422 2.07767082 -298.28390956 -2.18905282 -292.91235352 -6.42749023 C-291.9365332 -7.22026367 -290.96071289 -8.01303711 -289.95532227 -8.82983398 C-214.56957858 -68.85395443 -104.75651847 -72.51032702 0 0 Z " fill="#03E3F0" transform="translate(397.912353515625,80.427490234375)"/>
<path d="M0 0 C11.72797895 -0.4059685 22.65090611 3.82545305 33 9 C34.2699211 9.5956986 35.54082431 10.18930629 36.8125 10.78125 C58.65463437 21.10182819 75.10333594 36.41387212 84.0625 59 C89.94704494 78.56047343 85.8451511 98.24335252 76.6875 115.9375 C73.10011002 122.53582811 69.02191107 128.39752118 64 134 C63.27941406 134.83917969 62.55882812 135.67835938 61.81640625 136.54296875 C56.91509145 142.15781985 51.68701932 147.18687254 46 152 C68.26938233 138.36216121 85.69871248 118.97862726 96 95 C96.45632813 93.94039063 96.91265625 92.88078125 97.3828125 91.7890625 C102.51597251 77.25109185 102.58858673 57.90516019 96.44921875 43.7265625 C94.47716597 40.01633921 92.29885981 36.51590325 90 33 C90.33 32.34 90.66 31.68 91 31 C103.89603557 41.89534221 115.25601204 55.07581912 119 72 C120.05128864 84.88325579 120.31265367 98.03411651 115 110 C114.57589844 111.04542969 114.15179688 112.09085937 113.71484375 113.16796875 C97.65315304 150.61542036 62.88581892 175.48482883 28 194 C27.36046387 194.34240723 26.72092773 194.68481445 26.06201172 195.03759766 C13.11629083 201.91939642 -0.46913012 207.38963932 -14 213 C-13.505 223.395 -13.505 223.395 -13 234 C-31.7355964 232.25715382 -50.19227468 229.56398771 -68.38916016 224.68945312 C-71.7267002 223.80809787 -75.07229813 222.95918727 -78.41796875 222.109375 C-80.4843229 221.58274879 -82.55054328 221.05560157 -84.61669922 220.52819824 C-85.97313187 220.18221356 -87.32973397 219.83689234 -88.68652344 219.49230957 C-97.54611103 217.23827438 -106.29015829 214.77445768 -115 212 C-115 211.34 -115 210.68 -115 210 C-113.98969727 209.4423999 -113.98969727 209.4423999 -112.95898438 208.87353516 C-100.51176502 201.99023134 -88.15719043 195.05877891 -76.18115234 187.3828125 C-73.69300693 185.80537176 -71.18589657 184.26098749 -68.67578125 182.71875 C-52.79496934 172.93611664 -37.3640682 162.56879313 -22 152 C-19.41073669 154.58926331 -19.62601957 156.02705279 -19.375 159.625 C-19.26285156 161.12933594 -19.26285156 161.12933594 -19.1484375 162.6640625 C-19.09945312 163.43492187 -19.05046875 164.20578125 -19 165 C-13.6911954 163.46634534 -9.15844847 161.07166844 -4.375 158.375 C-3.57811768 157.92769531 -2.78123535 157.48039063 -1.96020508 157.01953125 C28.50968283 139.73654059 56.08214594 116.25308459 67.421875 82.16796875 C71.34265062 67.46506019 68.96078876 53.66296328 61.5625 40.5625 C48.29446548 19.22191396 23.74016925 7.21299195 0 1 C0 0.67 0 0.34 0 0 Z " fill="#FBFCFE" transform="translate(306,103)"/>
<path d="M0 0 C12.53405786 1.27864214 24.88714665 3.25122408 37.28076172 5.50634766 C39.80172671 5.96400533 42.32431063 6.41116222 44.84765625 6.85546875 C46.27354914 7.11135787 47.69933845 7.36782514 49.125 7.625 C50.95417969 7.95371094 50.95417969 7.95371094 52.8203125 8.2890625 C56 9 56 9 58.31396484 9.9453125 C61.23292351 11.09145879 64.10850618 11.84892253 67.15625 12.5859375 C68.34476563 12.87726563 69.53328125 13.16859375 70.7578125 13.46875 C73.22129821 14.06533527 75.68483846 14.66169539 78.1484375 15.2578125 C86.19558601 17.23066181 94.10924753 19.47264811 102 22 C102 22.66 102 23.32 102 24 C101.28158936 24.39155273 100.56317871 24.78310547 99.82299805 25.18652344 C85.73434678 32.88533822 71.83092545 40.72282588 58.36181641 49.47558594 C55.86136496 51.08948079 53.34514699 52.6761085 50.82421875 54.2578125 C36.64712016 63.16887573 22.79440724 72.51180169 9 82 C7 80 7 80 6.8046875 77.1796875 C6.82789063 76.08914062 6.85109375 74.99859375 6.875 73.875 C6.89304688 72.77929688 6.91109375 71.68359375 6.9296875 70.5546875 C6.95289063 69.71164063 6.97609375 68.86859375 7 68 C-15.43136255 78.95349652 -36.27136499 91.1769696 -54 109 C-54.48549316 109.48291504 -54.97098633 109.96583008 -55.47119141 110.46337891 C-66.95244765 122.00630017 -74.67428164 134.63665654 -80 150 C-80.26683594 150.73605469 -80.53367188 151.47210938 -80.80859375 152.23046875 C-84.6775114 164.74441619 -81.72341213 178.51884383 -76.375 190.0625 C-64.82725971 211.74281633 -42.56359022 223.57616503 -20 231 C-17.67306081 231.69386119 -15.34046058 232.35238221 -13 233 C-13 233.33 -13 233.66 -13 234 C-18.55065246 234.1848164 -23.34601712 233.73914154 -28.6875 232.125 C-29.40518555 231.9094043 -30.12287109 231.69380859 -30.86230469 231.47167969 C-56.61022347 223.26967742 -79.6228389 208.44527871 -92.6875 184.25 C-99.53003693 169.56800024 -102.37552449 151.66249941 -97 136 C-96.57460937 134.67935547 -96.57460937 134.67935547 -96.140625 133.33203125 C-89.28571445 113.93985008 -77.86390049 98.95541082 -63 85 C-62.67 84.67 -62.34 84.34 -62 84 C-69.73542733 89.62214048 -77.03118042 95.43413938 -84 102 C-84.67546875 102.61101562 -85.3509375 103.22203125 -86.046875 103.8515625 C-100.79339237 117.71328883 -112.46869748 138.24453586 -113.2734375 158.65234375 C-113.61801458 173.28888283 -112.8639774 185.08060856 -105.109375 197.8203125 C-104.74328125 198.53960937 -104.3771875 199.25890625 -104 200 C-104.33 200.66 -104.66 201.32 -105 202 C-121.03755226 188.7413973 -131.05739316 172.76951202 -133.45703125 152.0546875 C-133.91460112 136.09058318 -128.69895663 122.64900518 -121 109 C-120.45472656 108.02417969 -119.90945312 107.04835938 -119.34765625 106.04296875 C-110.16148434 90.70273547 -96.90152927 78.01074769 -83 67 C-82.05769531 66.22914063 -81.11539063 65.45828125 -80.14453125 64.6640625 C-55.83438565 45.22852565 -27.7023692 32.42498122 1 21 C1.0527897 15.78041828 0.97848401 10.64101366 0.5 5.4375 C0.4071875 4.40496094 0.314375 3.37242187 0.21875 2.30859375 C0.1465625 1.54675781 0.074375 0.78492188 0 0 Z " fill="#FBFCFE" transform="translate(207,163)"/>
<path d="M0 0 C27.59455164 -0.83037959 57.93852509 3.14035305 79.17822266 22.515625 C86.93326838 29.92962178 92.13715712 36.94161512 95.67822266 47.078125 C96.03271484 47.84253906 96.38720703 48.60695312 96.75244141 49.39453125 C101.38601613 62.82603268 96.0089809 77.76385655 90.33056641 89.9765625 C82.57724647 103.94610104 70.37114115 114.7190092 57.67822266 124.078125 C57.01822266 123.748125 56.35822266 123.418125 55.67822266 123.078125 C56.29697266 122.49865112 56.29697266 122.49865112 56.92822266 121.9074707 C70.54321431 109.04274715 83.99083477 93.81121328 84.91650391 74.07421875 C85.30552267 58.16631686 81.58157861 45.49895161 70.61572266 33.453125 C47.76838826 12.09471801 15.88397011 7.92300542 -14.00878906 8.9140625 C-34.07762915 9.90789157 -53.59090487 15.1197217 -71.45874023 24.27001953 C-73.38892795 25.2549075 -75.35272915 26.17342718 -77.32177734 27.078125 C-77.98177734 26.748125 -78.64177734 26.418125 -79.32177734 26.078125 C-55.31596934 10.86754837 -28.61246701 0.96277492 0 0 Z " fill="#F7F8FD" transform="translate(262.32177734375,117.921875)"/>
<path d="M0 0 C0.66 0.33 1.32 0.66 2 1 C0.60587891 2.32451172 0.60587891 2.32451172 -0.81640625 3.67578125 C-13.91048319 16.30631973 -25.84721807 31.53326231 -26.48242188 50.55883789 C-26.59379592 65.62991176 -22.7865234 77.97510039 -12 89 C-11.31035156 89.70511719 -10.62070313 90.41023438 -9.91015625 91.13671875 C11.25075234 111.22618893 40.78000091 114.90888018 68.61328125 114.3203125 C77.61595529 114.00290687 86.22216776 112.9920209 95 111 C96.15749756 110.75056641 96.15749756 110.75056641 97.33837891 110.49609375 C108.20713458 108.10784225 118.09458878 104.53052104 128.14453125 99.76953125 C131.36054981 98.2499962 134.59403811 97.0426414 138 96 C134.62528478 99.82352645 130.89239079 101.98100174 126.4375 104.3125 C125.3239917 104.89680786 125.3239917 104.89680786 124.18798828 105.49291992 C89.96676647 122.9605225 47.1673291 129.36442481 10.0625 117.75 C-0.88438334 113.74533512 -11.2576244 108.84194366 -20 101 C-20.77085937 100.31035156 -21.54171875 99.62070312 -22.3359375 98.91015625 C-33.1096038 88.72707298 -39.03497619 76.50526504 -39.5 61.5625 C-38.88432248 42.23817017 -29.3088359 26.38288213 -16 13 C-10.98012505 8.29811989 -5.72632831 3.81755221 0 0 Z " fill="#F8F9FD" transform="translate(179,259)"/>
<path d="M0 0 C1.65 0.33 3.3 0.66 5 1 C3.47550032 11.77485368 -10.6710437 23.36310436 -18 31 C-18.78375 31.825 -19.5675 32.65 -20.375 33.5 C-29.87943492 43.27599021 -40.76462995 51.34222396 -52 59 C-52.58813477 59.40331543 -53.17626953 59.80663086 -53.78222656 60.22216797 C-77.51439389 76.30067893 -104.25891621 86.39334459 -132 93 C-132.74483643 93.17821289 -133.48967285 93.35642578 -134.25708008 93.54003906 C-149.07373724 96.96942316 -164.1095199 97.20288374 -179.25 97.25 C-180.00809967 97.25517639 -180.76619934 97.26035278 -181.54727173 97.26568604 C-195.59666055 97.34123773 -209.2111005 96.005391 -223 93.1875 C-223.83829346 93.01718262 -224.67658691 92.84686523 -225.5402832 92.67138672 C-232.859783 91.12817308 -239.94281396 89.0950189 -247.01708984 86.67529297 C-249.07465006 85.97457744 -251.1401013 85.30142973 -253.20703125 84.62890625 C-289.40347465 72.62256289 -319.60445159 48.92112349 -346 22 C-345.67 21.34 -345.34 20.68 -345 20 C-344.51233154 20.49814209 -344.02466309 20.99628418 -343.5222168 21.50952148 C-330.4215479 34.99234383 -330.4215479 34.99234383 -316 47 C-315.38866211 47.45536133 -314.77732422 47.91072266 -314.14746094 48.37988281 C-304.18547063 55.75434317 -293.96159203 62.22588091 -283 68 C-282.35740234 68.34514648 -281.71480469 68.69029297 -281.05273438 69.04589844 C-232.22701811 95.17624408 -172.94672798 100.22065352 -120.00146484 84.84277344 C-86.55783632 74.6760807 -57.11374755 58.67155782 -31.24609375 35.0234375 C-29.47274404 33.42588072 -27.68316018 31.91616508 -25.8125 30.4375 C-22.14225273 27.25661903 -19.12612859 23.707458 -16 20 C-15.09570142 18.9460571 -14.19070503 17.89271268 -13.28515625 16.83984375 C-8.61430203 11.38972589 -4.0188383 5.95896713 0 0 Z " fill="#EDFDFE" transform="translate(429,377)"/>
<path d="M0 0 C4.51949523 3.69776882 8.66339749 7.64546029 12.75 11.8125 C27.38774604 26.60232063 44.63986889 38.32863262 63 48 C63.96389648 48.51771973 63.96389648 48.51771973 64.94726562 49.04589844 C91.71713756 63.37248819 120.89714153 70.41197144 151 73 C151 73.33 151 73.66 151 74 C148.525 74.495 148.525 74.495 146 75 C146 75.33 146 75.66 146 76 C139.08123046 76.29105401 132.76561826 75.2079857 126 73.8125 C124.89076172 73.58618896 123.78152344 73.35987793 122.63867188 73.12670898 C113.85787282 71.28332861 105.47182044 68.94748753 97 66 C95.60470541 65.54262402 94.20885283 65.08694743 92.8125 64.6328125 C57.74013205 53.01767884 24.43664629 29.62638552 0 2 C0 1.34 0 0.68 0 0 Z " fill="#D0FAFC" transform="translate(83,397)"/>
<path d="M0 0 C5.70674749 8.56012123 9.15610449 18.98983995 12.4375 28.6875 C12.6962793 29.4410376 12.95505859 30.1945752 13.22167969 30.97094727 C14.46721157 34.76008078 15.32700124 37.95635053 15 42 C13.22785054 39.34177581 12.3003683 37.32484906 11.265625 34.3515625 C10.94134521 33.4342334 10.61706543 32.5169043 10.28295898 31.57177734 C9.94208252 30.59934082 9.60120605 29.6269043 9.25 28.625 C6.54170882 20.98252722 3.65543021 13.67259984 -0.06640625 6.4609375 C-1.09060545 3.76116554 -1.03797036 2.64775671 0 0 Z " fill="#06CCEB" transform="translate(450,150)"/>
<path d="M0 0 C0.66 0.33 1.32 0.66 2 1 C2 1.99 2 2.98 2 4 C0.47632813 4.54527344 0.47632813 4.54527344 -1.078125 5.1015625 C-8.93518176 7.95771657 -16.38508942 10.99679929 -23.7421875 14.99609375 C-24.85980469 15.49302734 -24.85980469 15.49302734 -26 16 C-26.66 15.67 -27.32 15.34 -28 15 C-9.17003901 3.28010726 -9.17003901 3.28010726 0 0 Z " fill="#E5E8F9" transform="translate(211,129)"/>
<path d="M0 0 C4.35963219 1.55523881 8.14953747 3.82083044 12.0625 6.25 C18.547519 10.21676759 25.12856526 13.7370282 32 17 C31.01 17.66 30.02 18.32 29 19 C8.03371024 7.77733705 8.03371024 7.77733705 0 1 C0 0.67 0 0.34 0 0 Z " fill="#CFFAFC" transform="translate(122,432)"/>
<path d="M0 0 C4.03941417 1.76645228 8.24820636 2.92031241 12.4921875 4.08984375 C12.4921875 4.41984375 12.4921875 4.74984375 12.4921875 5.08984375 C6.37464464 5.35341136 1.44245324 4.53396182 -4.3828125 2.71484375 C-5.14078125 2.493125 -5.89875 2.27140625 -6.6796875 2.04296875 C-12.23517219 0.36248406 -12.23517219 0.36248406 -14.5078125 -1.91015625 C-8.66548672 -3.85759818 -5.36504301 -2.53800856 0 0 Z " fill="#D8DCF5" transform="translate(181.5078125,391.91015625)"/>
<path d="M0 0 C5.4042243 -0.2248832 9.81275243 0.5113589 14.9375 2 C15.96327148 2.28617187 15.96327148 2.28617187 17.00976562 2.578125 C18.67544526 3.04404937 20.33806675 3.52088411 22 4 C21.01 4.99 20.02 5.98 19 7 C12.62267685 5.12275039 6.29304541 3.14328358 0 1 C0 0.67 0 0.34 0 0 Z " fill="#D0D5F3" transform="translate(306,103)"/>
<path d="M0 0 C0.66 0.33 1.32 0.66 2 1 C-0.01714277 2.27701821 -2.0383933 3.54660194 -4.0625 4.8125 C-4.62388672 5.16892578 -5.18527344 5.52535156 -5.76367188 5.89257812 C-9.71651816 8.35463667 -13.68087454 10.25584361 -18 12 C-18 11.34 -18 10.68 -18 10 C-18.66 9.67 -19.32 9.34 -20 9 C-18.89140625 8.51789063 -17.7828125 8.03578125 -16.640625 7.5390625 C-15.17705887 6.90109778 -13.71351856 6.26307384 -12.25 5.625 C-11.15558594 5.14933594 -11.15558594 5.14933594 -10.0390625 4.6640625 C-9.33007812 4.3546875 -8.62109375 4.0453125 -7.890625 3.7265625 C-7.24125977 3.44377441 -6.59189453 3.16098633 -5.92285156 2.86962891 C-3.94035568 2.00390274 -3.94035568 2.00390274 -1.88183594 0.82958984 C-1.26083008 0.5558252 -0.63982422 0.28206055 0 0 Z " fill="#D4D9F4" transform="translate(315,355)"/>
<path d="M0 0 C0.66 0.33 1.32 0.66 2 1 C-1.63 4.63 -5.26 8.26 -9 12 C-9.66 11.01 -10.32 10.02 -11 9 C-9.73113036 7.87278564 -8.45982438 6.74831342 -7.1875 5.625 C-6.47980469 4.99851562 -5.77210938 4.37203125 -5.04296875 3.7265625 C-3 2 -3 2 0 0 Z " fill="#CCD2F2" transform="translate(179,259)"/>
<path d="M0 0 C0 0.66 0 1.32 0 2 C-1.96937661 3.62356346 -3.93345148 5.13559566 -6 6.625 C-6.85851562 7.25535156 -6.85851562 7.25535156 -7.734375 7.8984375 C-9.15203933 8.93805801 -10.57549262 9.96977591 -12 11 C-12.66 10.67 -13.32 10.34 -14 10 C-12.23722805 8.32401988 -10.46575711 6.65940764 -8.6875 5 C-7.93823242 4.28457031 -7.93823242 4.28457031 -7.17382812 3.5546875 C-3.33984375 0 -3.33984375 0 0 0 Z " fill="#5468D6" transform="translate(365,245)"/>
<path d="M0 0 C0.66 0.99 1.32 1.98 2 3 C-1.3 5.64 -4.6 8.28 -8 11 C-8.66 10.67 -9.32 10.34 -10 10 C-6.7 6.7 -3.4 3.4 0 0 Z " fill="#C2C9F0" transform="translate(328,231)"/>
<path d="M0 0 C0.99 0.33 1.98 0.66 3 1 C-0.55991828 3.96659857 -4.65222543 6.381348 -9 8 C-9.66 7.67 -10.32 7.34 -11 7 C-9.23754778 5.8000962 -7.46473019 4.61540483 -5.6875 3.4375 C-4.70136719 2.77621094 -3.71523437 2.11492187 -2.69921875 1.43359375 C-1.80847656 0.96050781 -0.91773438 0.48742187 0 0 Z " fill="#B4BCED" transform="translate(194,137)"/>
<path d="M0 0 C2.64 0.33 5.28 0.66 8 1 C8 2.32 8 3.64 8 5 C2.25 3.375 2.25 3.375 0 0 Z " fill="#E7EAF9" transform="translate(324,108)"/>
<path d="M0 0 C0.66 0.33 1.32 0.66 2 1 C-2.95 3.97 -2.95 3.97 -8 7 C-8.66 6.34 -9.32 5.68 -10 5 C-8.38007835 4.13624104 -6.75388139 3.28424146 -5.125 2.4375 C-4.22007812 1.96183594 -3.31515625 1.48617188 -2.3828125 0.99609375 C-1.20332031 0.50302734 -1.20332031 0.50302734 0 0 Z " fill="#A7B2EA" transform="translate(315,355)"/>
<path d="M0 0 C-0.33 0.99 -0.66 1.98 -1 3 C-2.875 3.875 -2.875 3.875 -5 4 C-6.75 2.5625 -6.75 2.5625 -8 1 C-5.10765685 0.17361624 -3.11257569 0 0 0 Z " fill="#E8EBF9" transform="translate(297,365)"/>
<path d="M0 0 C0.66 0.33 1.32 0.66 2 1 C-1.96 4.465 -1.96 4.465 -6 8 C-6.66 7.34 -7.32 6.68 -8 6 C-5.36 4.02 -2.72 2.04 0 0 Z " fill="#5568D6" transform="translate(146,245)"/>
</svg>
