<?xml version="1.0" encoding="UTF-8"?>
<svg version="1.1" xmlns="http://www.w3.org/2000/svg" width="500" height="500">
<path d="M0 0 C165 0 330 0 500 0 C500 165 500 330 500 500 C335 500 170 500 0 500 C0 335 0 170 0 0 Z " fill="#FDFEFD" transform="translate(0,0)"/>
<path d="M0 0 C165 0 330 0 500 0 C500 165 500 330 500 500 C335 500 170 500 0 500 C0 335 0 170 0 0 Z M26 26 C26 173.84 26 321.68 26 474 C173.51 474 321.02 474 473 474 C473 326.16 473 178.32 473 26 C325.49 26 177.98 26 26 26 Z " fill="#62CC69" transform="translate(0,0)"/>
<path d="M0 0 C1.95262677 -0.00323159 3.90525332 -0.0065969 5.85787964 -0.01008606 C9.9269059 -0.01601898 13.99591113 -0.01793229 18.06494141 -0.01733398 C22.15808575 -0.01725317 26.2511171 -0.02413404 30.34423828 -0.0378418 C69.31217858 -0.16629988 108.58477748 0.25265445 146.9921875 7.60546875 C148.02674072 7.79858643 149.06129395 7.9917041 150.12719727 8.19067383 C155.67238437 9.32716129 159.67426024 10.62115733 164.1171875 14.16796875 C163.11390553 16.87775117 162.48658185 17.96897953 159.90234375 19.36108398 C153.35305153 21.59331674 146.95762288 23.19940521 140.1171875 24.23046875 C139.06539307 24.39329346 138.01359863 24.55611816 136.92993164 24.72387695 C127.50247403 26.10583117 118.04424 27.03347425 108.5546875 27.85546875 C107.86334717 27.91622589 107.17200684 27.97698303 106.4597168 28.0395813 C101.34943338 28.48079014 96.2364717 28.84824398 91.1171875 29.16796875 C89.93056519 29.2421553 89.93056519 29.2421553 88.7199707 29.31784058 C68.88573897 30.4852598 49.00998634 30.35538506 29.14941406 30.35327148 C25.22911944 30.35319052 21.30894242 30.36010041 17.38867188 30.3737793 C-13.33277205 30.47915649 -43.90159048 29.93593609 -74.4453125 26.29296875 C-75.83262476 26.14269705 -77.2199954 25.99296349 -78.60742188 25.84375 C-85.83431207 25.03100361 -92.93570386 23.86963836 -100.03515625 22.28515625 C-101.08081505 22.06184128 -101.08081505 22.06184128 -102.14759827 21.83401489 C-106.87160484 20.71645856 -110.05326307 19.01805661 -113.8828125 16.16796875 C-113.3828125 14.35546875 -113.3828125 14.35546875 -111.8828125 12.16796875 C-80.42521951 -2.95587404 -34.28312592 0.01371829 0 0 Z " fill="#EBF8EC" transform="translate(224.8828125,389.83203125)"/>
<path d="M0 0 C7.734375 -0.020625 15.46875 -0.04125 23.4375 -0.0625 C25.88212646 -0.071604 28.32675293 -0.08070801 30.84545898 -0.09008789 C32.77067001 -0.09300691 34.69588165 -0.0955555 36.62109375 -0.09765625 C38.13564148 -0.1053302 38.13564148 -0.1053302 39.68078613 -0.11315918 C40.6348938 -0.11328003 41.58900146 -0.11340088 42.57202148 -0.11352539 C43.40475082 -0.115746 44.23748016 -0.11796661 45.09544373 -0.12025452 C47 0 47 0 48 1 C48.09304018 2.47354348 48.11746265 3.95150591 48.11352539 5.42797852 C48.11340454 6.38208618 48.11328369 7.33619385 48.11315918 8.31921387 C48.10804321 9.32891235 48.10292725 10.33861084 48.09765625 11.37890625 C48.09664917 12.30183472 48.09564209 13.22476318 48.09460449 14.17565918 C48.08935494 17.63795201 48.07539381 21.1002272 48.0625 24.5625 C48.041875 32.296875 48.02125 40.03125 48 48 C32.16 48 16.32 48 0 48 C0 32.16 0 16.32 0 0 Z " fill="#FEFEFC" transform="translate(117,225)"/>
<path d="M0 0 C6.11374771 3.66209385 10.39911526 9.58626158 12.328125 16.39453125 C13.39070854 24.81162558 12.25534257 31.41430636 7.328125 38.39453125 C2.61864777 43.80128545 -2.99623733 46.78170495 -10.0859375 47.7109375 C-17.66963536 48.07486108 -23.07230558 45.60335794 -29.421875 41.70703125 C-34.85195063 36.12612019 -37.23502613 29.85038975 -37.984375 22.20703125 C-37.35447844 14.52229326 -34.24221901 7.7116778 -28.671875 2.39453125 C-19.34475871 -3.29318084 -10.15014403 -4.51649491 0 0 Z " fill="#FEFEFD" transform="translate(370.671875,227.60546875)"/>
<path d="M0 0 C7.734375 -0.020625 15.46875 -0.04125 23.4375 -0.0625 C25.88212646 -0.071604 28.32675293 -0.08070801 30.84545898 -0.09008789 C32.77067001 -0.09300691 34.69588165 -0.0955555 36.62109375 -0.09765625 C38.13564148 -0.1053302 38.13564148 -0.1053302 39.68078613 -0.11315918 C40.6348938 -0.11328003 41.58900146 -0.11340088 42.57202148 -0.11352539 C43.40475082 -0.115746 44.23748016 -0.11796661 45.09544373 -0.12025452 C47 0 47 0 48 1 C48.09304018 2.47354348 48.11746265 3.95150591 48.11352539 5.42797852 C48.11340454 6.38208618 48.11328369 7.33619385 48.11315918 8.31921387 C48.10804321 9.32891235 48.10292725 10.33861084 48.09765625 11.37890625 C48.09664917 12.30183472 48.09564209 13.22476318 48.09460449 14.17565918 C48.08935494 17.63795201 48.07539381 21.1002272 48.0625 24.5625 C48.041875 32.296875 48.02125 40.03125 48 48 C32.16 48 16.32 48 0 48 C0 32.16 0 16.32 0 0 Z M6 6 C6 17.88 6 29.76 6 42 C17.88 42 29.76 42 42 42 C42 30.12 42 18.24 42 6 C30.12 6 18.24 6 6 6 Z " fill="#FECD6C" transform="translate(117,225)"/>
<path d="M0 0 C16.42968169 -1.10143117 33.23900138 4.09463251 45.83886719 14.85913086 C58.99232886 26.76874166 68.19701698 42.23861228 69.3203125 60.19921875 C69.99480696 78.14155124 65.60277959 94.59095578 53.5625 108.375 C47.23127478 114.98522836 41.40377603 120.24831427 33 124 C31.515 121.525 31.515 121.525 30 119 C30.68964844 118.59910156 31.37929688 118.19820313 32.08984375 117.78515625 C46.55904887 109.03218031 56.25706009 97.37079259 61 81 C64.71357917 64.42274731 62.37648736 47.70356255 53.75 33.125 C45.46704157 21.15284381 32.66098587 10.81372456 18 8 C12.01915059 7.14911627 6.01474495 6.55151383 0 6 C0 4.02 0 2.04 0 0 Z " fill="#65CD6C" transform="translate(247,185)"/>
<path d="M0 0 C0.99 0.99 1.98 1.98 3 3 C1.6836443 6.94906711 -0.77974128 8.04946942 -4.125 10.1875 C-17.63974203 19.21754591 -24.66407538 31.70048593 -28.58984375 47.3515625 C-31.18427929 64.10420339 -27.52855495 79.53032233 -18.25390625 93.66015625 C-10.48569227 104.10929231 -0.24353545 110.84875837 12 115 C12.68449219 115.23332031 13.36898437 115.46664062 14.07421875 115.70703125 C19.38339294 117.2541491 24.84201642 117.44461401 30.33984375 117.75390625 C33 118 33 118 34 119 C34.04063832 120.66617115 34.042721 122.33388095 34 124 C22.13756462 124.6536444 10.51946214 122.65397051 0 117 C-0.79792969 116.57976562 -1.59585938 116.15953125 -2.41796875 115.7265625 C-17.32210024 107.36176312 -27.12281963 94.95743519 -33 79 C-38.12543916 60.19387738 -36.57988002 42.68752908 -27.1640625 25.62890625 C-20.68991192 14.51677335 -11.73191321 5.48750779 0 0 Z " fill="#65CD6C" transform="translate(221,192)"/>
<path d="M0 0 C1.65 0 3.3 0 5 0 C5.268125 0.680625 5.53625 1.36125 5.8125 2.0625 C12.8387912 19.44332559 21.06998719 34.25310913 34 48 C34.52851563 48.60457031 35.05703125 49.20914063 35.6015625 49.83203125 C56.0568257 72.22792198 88.25180055 78.46998378 117 80 C117 81.65 117 83.3 117 85 C83.12087571 85.9635982 54.20129079 76.20800948 29.33154297 52.734375 C15.89575734 39.60522414 4.8572677 22.2786653 0 4 C0 2.68 0 1.36 0 0 Z " fill="#64CC6B" transform="translate(141,279)"/>
<path d="M0 0 C30.46627992 -1.43355161 57.63443926 7.0262142 81 27 C81.79921875 27.64195312 82.5984375 28.28390625 83.421875 28.9453125 C96.53590507 39.9293568 106.26730815 55.1818454 112.875 70.8125 C113.18606689 71.54267334 113.49713379 72.27284668 113.81762695 73.02514648 C115.35882744 76.81420381 116.40957757 79.83050037 116 84 C114.35 84 112.7 84 111 84 C110.8040625 83.46375 110.608125 82.9275 110.40625 82.375 C99.07878141 52.68922024 80.41948732 28.40866753 51.06542969 15.12451172 C34.58767363 8.07248736 17.7080404 6.35170323 0 5 C0 3.35 0 1.7 0 0 Z " fill="#64CC6B" transform="translate(244,137)"/>
<path d="M0 0 C6.11374771 3.66209385 10.39911526 9.58626158 12.328125 16.39453125 C13.39070854 24.81162558 12.25534257 31.41430636 7.328125 38.39453125 C2.61864777 43.80128545 -2.99623733 46.78170495 -10.0859375 47.7109375 C-17.66963536 48.07486108 -23.07230558 45.60335794 -29.421875 41.70703125 C-34.85195063 36.12612019 -37.23502613 29.85038975 -37.984375 22.20703125 C-37.35447844 14.52229326 -34.24221901 7.7116778 -28.671875 2.39453125 C-19.34475871 -3.29318084 -10.15014403 -4.51649491 0 0 Z M-28.046875 10.89453125 C-31.30288622 15.90377929 -32.55720556 20.3964167 -31.671875 26.39453125 C-29.5172024 33.02994346 -25.76566517 36.99238991 -19.78125 40.50390625 C-15.25123769 42.41657811 -10.08526793 42.09303492 -5.41796875 40.7421875 C-0.33089891 38.49306554 2.69758779 35.26046059 5.328125 30.39453125 C7.23007821 24.68867161 7.23064712 18.62306387 4.765625 13.08203125 C1.93377687 8.08584205 -2.29527348 5.18673176 -7.671875 3.39453125 C-16.49452234 2.29757687 -21.97412207 4.50215974 -28.046875 10.89453125 Z " fill="#FECC6A" transform="translate(370.671875,227.60546875)"/>
<path d="M0 0 C0.36328125 3.1328125 0.36328125 3.1328125 0 7 C-1.91072891 9.3268972 -3.53688708 10.98807676 -5.8125 12.875 C-6.40272949 13.3911084 -6.99295898 13.9072168 -7.60107422 14.43896484 C-9.38147093 15.98395302 -11.18410359 17.49697935 -13 19 C-13.96550781 19.79921875 -14.93101562 20.5984375 -15.92578125 21.421875 C-17.7130747 22.88067891 -19.50599345 24.3326201 -21.3046875 25.77734375 C-25.1522831 28.95021606 -28.80569096 32.32154564 -32.48046875 35.69140625 C-41.54822335 44 -41.54822335 44 -44 44 C-40.41997209 47.84970987 -36.71204404 50.62554363 -32.1875 53.3125 C-24.7527773 57.8407432 -17.4884016 62.60228474 -10.25 67.4375 C-9.20223389 68.13593018 -8.15446777 68.83436035 -7.07495117 69.55395508 C-1.48936203 73.29027055 -1.48936203 73.29027055 1 75 C1.74926758 75.48992432 2.49853516 75.97984863 3.27050781 76.48461914 C5.97958984 78.85831651 5.73964359 81.55027754 6 85 C-0.93957903 81.32541323 -7.4378482 77.14809772 -13.9375 72.75 C-23.08489696 66.60355059 -32.2704612 60.52212861 -41.5 54.5 C-42.08014862 54.12129761 -42.66029724 53.74259521 -43.25802612 53.35241699 C-46.50437755 51.2334499 -49.75170117 49.11598045 -53 47 C-51.26204439 43.21352797 -49.3052917 41.39006413 -46 38.8125 C-42.22448968 35.80880624 -38.55939005 32.75707006 -35 29.5 C-31.60401318 26.40444804 -28.13828469 23.44848793 -24.5625 20.5625 C-19.71989113 16.64457599 -15.11045805 12.52102953 -10.5234375 8.30859375 C-1.44162437 0 -1.44162437 0 0 0 Z " fill="#65CD6C" transform="translate(249,121)"/>
<path d="M0 0 C4.29064292 1.50089787 7.84527849 3.75032769 11.56640625 6.3046875 C12.90464656 7.20999634 14.24337684 8.11458119 15.58251953 9.01855469 C16.29563293 9.50126831 17.00874634 9.98398193 17.74346924 10.48132324 C21.73419777 13.16713935 25.75682758 15.80438664 29.77734375 18.4453125 C30.60803375 18.99161316 31.43872375 19.53791382 32.29458618 20.10076904 C34.84191737 21.77597977 37.38969959 23.45050301 39.9375 25.125 C41.69989842 26.28381064 43.46226837 27.44266455 45.22460938 28.6015625 C49.48274616 31.401539 53.74126357 34.20093565 58 37 C56.10870539 41.20238071 53.24802555 43.61385744 49.75 46.5 C48.47252195 47.57405903 47.19518195 48.64828229 45.91796875 49.72265625 C45.26489746 50.26809082 44.61182617 50.81352539 43.93896484 51.37548828 C40.95929702 53.87192616 38.0111969 56.40463418 35.0625 58.9375 C34.20809326 59.66864014 34.20809326 59.66864014 33.33642578 60.41455078 C30.23279228 63.07220508 27.14254301 65.74414543 24.06640625 68.43359375 C17.86240124 73.8536937 11.71135115 79.20617775 5 84 C4.54397225 79.65432383 4.43881267 77.69536301 7.23828125 74.2265625 C8.24522426 73.33877246 9.27130834 72.47236374 10.3125 71.625 C10.85575928 71.15586182 11.39901855 70.68672363 11.95874023 70.20336914 C13.62091731 68.77861146 15.30505912 67.38553895 17 66 C17.94359375 65.22269531 18.8871875 64.44539063 19.859375 63.64453125 C21.65998693 62.17437845 23.46599212 60.71080634 25.27734375 59.25390625 C28.14640586 56.87880032 30.88701803 54.39973163 33.625 51.875 C38.22447152 47.63951543 42.98900807 43.73659152 48 40 C46.78123575 36.34370725 45.76441566 35.91723958 42.57421875 33.8828125 C41.64134033 33.28178711 40.70846191 32.68076172 39.74731445 32.06152344 C38.73757568 31.4224707 37.72783691 30.78341797 36.6875 30.125 C35.66035889 29.46532227 34.63321777 28.80564453 33.57495117 28.12597656 C31.44227111 26.75631439 29.30755437 25.38981874 27.17089844 24.02636719 C22.36934795 20.95792947 17.59072747 17.85457622 12.8125 14.75 C11.98258545 14.21391113 11.1526709 13.67782227 10.29760742 13.12548828 C9.52521729 12.6251709 8.75282715 12.12485352 7.95703125 11.609375 C7.28647705 11.17592773 6.61592285 10.74248047 5.92504883 10.29589844 C5.28978271 9.86825195 4.6545166 9.44060547 4 9 C3.26354248 8.51692383 2.52708496 8.03384766 1.76831055 7.53613281 C0 6 0 6 -0.25 2.8125 C-0.1675 1.884375 -0.085 0.95625 0 0 Z " fill="#65CD6C" transform="translate(247,295)"/>
<path d="M0 0 C1.98 0 3.96 0 6 0 C3.20565339 16.73396076 -6.04972661 32.37152379 -17 45 C-17.65226562 45.79664063 -18.30453125 46.59328125 -18.9765625 47.4140625 C-27.46966314 57.4340127 -39.47608545 68.42741969 -52 73 C-52.99 72.67 -53.98 72.34 -55 72 C-55.6875 69.9375 -55.6875 69.9375 -56 68 C-55.06800781 67.47792969 -54.13601563 66.95585937 -53.17578125 66.41796875 C-26.30491219 51.03835199 -10.07406057 29.09658835 0 0 Z " fill="#65CD6D" transform="translate(355,279)"/>
<path d="M0 0 C0.495 2.475 0.495 2.475 1 5 C-0.00417969 5.58265625 -1.00835937 6.1653125 -2.04296875 6.765625 C-11.79467701 12.55791195 -20.0431067 18.93247906 -28 27 C-28.82113281 27.81082031 -29.64226562 28.62164062 -30.48828125 29.45703125 C-41.86418987 41.30448013 -48.99351668 56.51483067 -54 72 C-55.98 72 -57.96 72 -60 72 C-56.16849972 47.73383156 -37.93756468 24.04835383 -18.58081055 9.86938477 C-4.75482206 0 -4.75482206 0 0 0 Z " fill="#64CD6B" transform="translate(201,149)"/>
</svg>
